<?xml version="1.0" encoding="UTF-8"?>
<svg id="Layer_1" data-name="Layer 1" xmlns="http://www.w3.org/2000/svg" viewBox="0 0 970 160">
  <defs>
    <style>
      .cls-1 {
        fill: #c1272d;
      }
    </style>
  </defs>
  <path class="cls-1" d="M320,130v-50c0-16.57-13.43-30-30-30h-20v10c11.05,0,20,8.95,20,20v50c0,16.57,13.43,30,30,30h20v-10c-11.05,0-20-8.95-20-20Zm-20,0v-50c0-7.6-2.83-14.54-7.49-19.83,9.86,1.23,17.49,9.63,17.49,19.83v50c0,7.6,2.83,14.54,7.49,19.83-9.86-1.23-17.49-9.63-17.49-19.83Z"/>
  <path class="cls-1" d="M50,130v-50c0-16.57-13.43-30-30-30H0v10c11.05,0,20,8.95,20,20v50c0,16.57,13.43,30,30,30h20v-10c-11.05,0-20-8.95-20-20Zm-20,0v-50c0-7.6-2.83-14.54-7.49-19.83,9.86,1.23,17.49,9.63,17.49,19.83v50c0,7.6,2.83,14.54,7.49,19.83-9.86-1.23-17.49-9.63-17.49-19.83Z"/>
  <path class="cls-1" d="M650,130V30c0-16.57-13.43-30-30-30h-20V10c11.05,0,20,8.95,20,20v100c0,16.57,13.43,30,30,30h20v-10c-11.05,0-20-8.95-20-20Zm-20,0V30c0-7.6-2.83-14.54-7.49-19.83,9.86,1.23,17.49,9.63,17.49,19.83v100c0,7.6,2.83,14.54,7.49,19.83-9.86-1.23-17.49-9.63-17.49-19.83Z"/>
  <path class="cls-1" d="M390,50h-20c-16.57,0-30,13.43-30,30s13.43,30,30,30c11.05,0,20,8.95,20,20h-20c-11.05,0-20-8.95-20-20h-10v20c0,16.57,13.43,30,30,30h20c16.57,0,30-13.43,30-30s-13.43-30-30-30c-11.05,0-20-8.95-20-20h20c11.05,0,20,8.95,20,20h10v-20c0-16.57-13.43-30-30-30Zm-39.83,82.51c5.29,4.66,12.22,7.49,19.83,7.49h17.3c-3.46,5.97-9.9,10-17.3,10-10.2,0-18.59-7.63-19.83-17.49Zm59.83-2.51c0,10.2-7.63,18.59-17.49,19.83,4.66-5.29,7.49-12.22,7.49-19.83s-2.83-14.54-7.49-19.83c9.86,1.23,17.49,9.63,17.49,19.83Zm-42.51-30.17c-9.86-1.23-17.49-9.63-17.49-19.83s7.63-18.59,17.49-19.83c-4.66,5.29-7.49,12.22-7.49,19.83s2.83,14.54,7.49,19.83Zm22.51-29.83h-17.3c3.46-5.97,9.9-10,17.3-10,10.2,0,18.59,7.63,19.83,17.49-5.29-4.66-12.22-7.49-19.83-7.49Z"/>
  <path class="cls-1" d="M480,50h-20c-16.57,0-30,13.43-30,30v50c0,16.57,13.43,30,30,30h20c16.57,0,30-13.43,30-30v-20h-10c0,11.05-8.95,20-20,20s-20-8.95-20-20v-30c11.05,0,20,8.95,20,20h30v-20c0-16.57-13.43-30-30-30Zm0,90c7.6,0,14.54-2.83,19.83-7.49-1.23,9.86-9.63,17.49-19.83,17.49s-18.59-7.63-19.83-17.49c5.29,4.66,12.22,7.49,19.83,7.49Zm-30-10c0,7.6,2.83,14.54,7.49,19.83-9.86-1.23-17.49-9.63-17.49-19.83v-30c0-7.4,4.03-13.85,10-17.3v47.3Zm10-60c-7.6,0-14.54,2.83-19.83,7.49,1.23-9.86,9.63-17.49,19.83-17.49s18.59,7.63,19.83,17.49c-5.29-4.66-12.22-7.49-19.83-7.49Zm40,20h-10v-10c0-7.6-2.83-14.54-7.49-19.83,9.86,1.23,17.49,9.63,17.49,19.83v10Z"/>
  <path class="cls-1" d="M160,130v-50c0-16.57-13.43-30-30-30-10.44,0-19.63,5.33-25,13.42-5.37-8.09-14.56-13.42-25-13.42h-20v10c11.05,0,20,8.95,20,20v50c0,16.57,13.43,30,30,30h20v-10c-11.05,0-20-8.95-20-20v-30c0-11.05,8.95-20,20-20v50c0,16.57,13.43,30,30,30h20v-10c-11.05,0-20-8.95-20-20Zm-60,0c0,7.6,2.83,14.54,7.49,19.83-9.86-1.23-17.49-9.63-17.49-19.83v-50c0-7.6-2.83-14.54-7.49-19.83,9.86,1.23,17.49,9.63,17.49,19.83v50Zm10.17-52.51c1.23-9.86,9.63-17.49,19.83-17.49s18.59,7.63,19.83,17.49c-5.29-4.66-12.22-7.49-19.83-7.49s-14.54,2.83-19.83,7.49Zm29.83,52.51v-47.3c5.97,3.46,10,9.9,10,17.3v30c0,7.6,2.83,14.54,7.49,19.83-9.86-1.23-17.49-9.63-17.49-19.83Z"/>
  <path class="cls-1" d="M600,130v-50c0-16.57-13.43-30-30-30-7.69,0-14.69,2.89-20,7.64V30c0-16.57-13.43-30-30-30h-20V10c11.05,0,20,8.95,20,20v100c0,16.57,13.43,30,30,30h20v-10c-11.05,0-20-8.95-20-20v-30c0-11.05,8.95-20,20-20v50c0,16.57,13.43,30,30,30h20v-10c-11.05,0-20-8.95-20-20Zm-60,0c0,7.6,2.83,14.54,7.49,19.83-9.86-1.23-17.49-9.63-17.49-19.83V30c0-7.6-2.83-14.54-7.49-19.83,9.86,1.23,17.49,9.63,17.49,19.83v100Zm10.17-52.51c1.23-9.86,9.63-17.49,19.83-17.49s18.59,7.63,19.83,17.49c-5.29-4.66-12.22-7.49-19.83-7.49s-14.54,2.83-19.83,7.49Zm29.83,52.51v-47.3c5.97,3.46,10,9.9,10,17.3v30c0,7.6,2.83,14.54,7.49,19.83-9.86-1.23-17.49-9.63-17.49-19.83Z"/>
  <path class="cls-1" d="M260,130V30c0-11.05,8.95-20,20-20V0h-20c-16.57,0-30,13.43-30,30v27.64c-5.31-4.75-12.31-7.64-20-7.64-16.57,0-30,13.43-30,30v50c0,16.57,13.43,30,30,30h70v-10c-11.05,0-20-8.95-20-20Zm-2.51-119.83c-4.66,5.29-7.49,12.22-7.49,19.83v100h-10V30c0-10.2,7.63-18.59,17.49-19.83Zm-47.49,69.83c11.05,0,20,8.95,20,20v30c-11.05,0-20-8.95-20-20v-30Zm0-20c10.2,0,18.59,7.63,19.83,17.49-5.29-4.66-12.22-7.49-19.83-7.49s-14.54,2.83-19.83,7.49c1.23-9.86,9.63-17.49,19.83-17.49Zm-20,70v-30c0-7.4,4.03-13.85,10-17.3v47.3c0,7.6,2.83,14.54,7.49,19.83-9.86-1.23-17.49-9.63-17.49-19.83Zm40,20c-10.2,0-18.59-7.63-19.83-17.49,5.29,4.66,12.22,7.49,19.83,7.49h21.71c1.32,3.73,3.35,7.11,5.93,10h-27.64Z"/>
  <path class="cls-1" d="M850,130v-50c0-16.57-13.43-30-30-30-10.44,0-19.63,5.33-25,13.42-5.37-8.09-14.56-13.42-25-13.42h-20v10c11.05,0,20,8.95,20,20v50c0,16.57,13.43,30,30,30h20v-10c-11.05,0-20-8.95-20-20v-30c0-11.05,8.95-20,20-20v50c0,16.57,13.43,30,30,30h20v-10c-11.05,0-20-8.95-20-20Zm-60,0c0,7.6,2.83,14.54,7.49,19.83-9.86-1.23-17.49-9.63-17.49-19.83v-50c0-7.6-2.83-14.54-7.49-19.83,9.86,1.23,17.49,9.63,17.49,19.83v50Zm10.17-52.51c1.23-9.86,9.63-17.49,19.83-17.49s18.59,7.63,19.83,17.49c-5.29-4.66-12.22-7.49-19.83-7.49s-14.54,2.83-19.83,7.49Zm29.83,52.51v-47.3c5.97,3.46,10,9.9,10,17.3v30c0,7.6,2.83,14.54,7.49,19.83-9.86-1.23-17.49-9.63-17.49-19.83Z"/>
  <path class="cls-1" d="M970,10V0h-20c-16.57,0-30,13.43-30,30v27.64c-5.31-4.75-12.31-7.64-20-7.64-16.57,0-30,13.43-30,30v50c0,16.57,13.43,30,30,30h70v-10c-11.05,0-20-8.95-20-20V30c0-11.05,8.95-20,20-20Zm-50,120c-11.05,0-20-8.95-20-20v-30c11.05,0,20,8.95,20,20v30Zm-20-70c10.2,0,18.59,7.63,19.83,17.49-5.29-4.66-12.22-7.49-19.83-7.49s-14.54,2.83-19.83,7.49c1.23-9.86,9.63-17.49,19.83-17.49Zm-20,70v-30c0-7.4,4.03-13.85,10-17.3v47.3c0,7.6,2.83,14.54,7.49,19.83-9.86-1.23-17.49-9.63-17.49-19.83Zm20.17,2.51c5.29,4.66,12.22,7.49,19.83,7.49h21.71c1.32,3.73,3.35,7.11,5.93,10h-27.64c-10.2,0-18.59-7.63-19.83-17.49Zm39.83-2.51h-10V30c0-10.2,7.63-18.59,17.49-19.83-4.66,5.29-7.49,12.22-7.49,19.83v100Z"/>
  <path class="cls-1" d="M750,130v-50c0-16.57-13.43-30-30-30h-20c-16.57,0-30,13.43-30,30v50c0,16.57,13.43,30,30,30h70v-10c-11.05,0-20-8.95-20-20Zm-10-50v50c0,7.6,2.83,14.54,7.49,19.83-9.86-1.23-17.49-9.63-17.49-19.83v-50c0-7.6-2.83-14.54-7.49-19.83,9.86,1.23,17.49,9.63,17.49,19.83Zm-40,0c11.05,0,20,8.95,20,20v30c-11.05,0-20-8.95-20-20v-30Zm0-20c10.2,0,18.59,7.63,19.83,17.49-5.29-4.66-12.22-7.49-19.83-7.49s-14.54,2.83-19.83,7.49c1.23-9.86,9.63-17.49,19.83-17.49Zm-20,70v-30c0-7.4,4.03-13.85,10-17.3v47.3c0,7.6,2.83,14.54,7.49,19.83-9.86-1.23-17.49-9.63-17.49-19.83Zm20.17,2.51c5.29,4.66,12.22,7.49,19.83,7.49h1.71c1.32,3.73,3.35,7.11,5.93,10h-7.64c-10.2,0-18.59-7.63-19.83-17.49Z"/>
</svg>