<?xml version="1.0" encoding="UTF-8"?>
<svg id="Layer_1" data-name="Layer 1" xmlns="http://www.w3.org/2000/svg" viewBox="0 0 970 160">
  <path d="M320,130v-50c0-16.57-13.43-30-30-30h-20v10c11.05,0,20,8.95,20,20v50c0,16.57,13.43,30,30,30h20v-10c-11.05,0-20-8.95-20-20Zm-20,0v-50c0-7.6-2.83-14.54-7.49-19.83,9.86,1.23,17.49,9.63,17.49,19.83v50c0,7.6,2.83,14.54,7.49,19.83-9.86-1.23-17.49-9.63-17.49-19.83Z"/>
  <path d="M50,130v-50c0-16.57-13.43-30-30-30H0v10c11.05,0,20,8.95,20,20v50c0,16.57,13.43,30,30,30h20v-10c-11.05,0-20-8.95-20-20Zm-20,0v-50c0-7.6-2.83-14.54-7.49-19.83,9.86,1.23,17.49,9.63,17.49,19.83v50c0,7.6,2.83,14.54,7.49,19.83-9.86-1.23-17.49-9.63-17.49-19.83Z"/>
  <path d="M650,130V30c0-16.57-13.43-30-30-30h-20V10c11.05,0,20,8.95,20,20v100c0,16.57,13.43,30,30,30h20v-10c-11.05,0-20-8.95-20-20Zm-20,0V30c0-7.6-2.83-14.54-7.49-19.83,9.86,1.23,17.49,9.63,17.49,19.83v100c0,7.6,2.83,14.54,7.49,19.83-9.86-1.23-17.49-9.63-17.49-19.83Z"/>
  <path d="M470,62.7c5.97,3.46,10,9.9,10,17.3h30c0-16.57-13.43-30-30-30h-20c-16.57,0-30,13.43-30,30v50c0,16.57,13.43,30,30,30h20c16.57,0,30-13.43,30-30h-30c0,7.4-4.03,13.85-10,17.3-5.97-3.46-10-9.9-10-17.3v-50c0-7.4,4.03-13.85,10-17.3Zm27.3,7.3h-9.02c-1.29-3.65-3.27-6.98-5.78-9.83,6.34,.79,11.74,4.54,14.8,9.83Zm0,70c-3.06,5.29-8.46,9.03-14.8,9.83,2.51-2.85,4.49-6.17,5.78-9.83h9.02Zm-47.3-10c0,7.6,2.83,14.54,7.49,19.83-9.86-1.23-17.49-9.63-17.49-19.83v-50c0-10.2,7.63-18.59,17.49-19.83-4.66,5.29-7.49,12.22-7.49,19.83v50Z"/>
  <path d="M380,62.7c5.97,3.46,10,9.9,10,17.3h30c0-16.57-13.43-30-30-30h-20c-16.57,0-30,13.43-30,30s13.43,30,30,30c11.05,0,20,8.95,20,20,0,7.4-4.03,13.85-10,17.3-5.97-3.46-10-9.9-10-17.3h-30c0,16.57,13.43,30,30,30h20c16.57,0,30-13.43,30-30s-13.43-30-30-30c-11.05,0-20-8.95-20-20,0-7.4,4.03-13.85,10-17.3Zm27.3,7.3h-9.02c-1.29-3.65-3.27-6.98-5.78-9.83,6.34,.79,11.74,4.54,14.8,9.83Zm-54.61,70h9.02c1.29,3.65,3.27,6.98,5.78,9.83-6.34-.79-11.74-4.54-14.8-9.83Zm57.3-10c0,10.2-7.63,18.59-17.49,19.83,4.66-5.29,7.49-12.22,7.49-19.83s-2.83-14.54-7.49-19.83c9.86,1.23,17.49,9.63,17.49,19.83Zm-42.51-30.17c-9.86-1.23-17.49-9.63-17.49-19.83s7.63-18.59,17.49-19.83c-4.66,5.29-7.49,12.22-7.49,19.83s2.83,14.54,7.49,19.83Z"/>
  <path d="M160,130v-50c0-16.57-13.43-30-30-30-10.44,0-19.63,5.33-25,13.42-5.37-8.09-14.56-13.42-25-13.42h-20v10c11.05,0,20,8.95,20,20v50c0,16.57,13.43,30,30,30h20v-10c-11.05,0-20-8.95-20-20v-30c0-11.05,8.95-20,20-20v50c0,16.57,13.43,30,30,30h20v-10c-11.05,0-20-8.95-20-20Zm-60,0c0,7.6,2.83,14.54,7.49,19.83-9.86-1.23-17.49-9.63-17.49-19.83v-50c0-7.6-2.83-14.54-7.49-19.83,9.86,1.23,17.49,9.63,17.49,19.83v50Zm10.17-52.51c1.23-9.86,9.63-17.49,19.83-17.49s18.59,7.63,19.83,17.49c-5.29-4.66-12.22-7.49-19.83-7.49s-14.54,2.83-19.83,7.49Zm29.83,52.51v-47.3c5.97,3.46,10,9.9,10,17.3v30c0,7.6,2.83,14.54,7.49,19.83-9.86-1.23-17.49-9.63-17.49-19.83Z"/>
  <path d="M600,130v-50c0-16.57-13.43-30-30-30-7.69,0-14.69,2.89-20,7.64V30c0-16.57-13.43-30-30-30h-20V10c11.05,0,20,8.95,20,20v100c0,16.57,13.43,30,30,30h20v-10c-11.05,0-20-8.95-20-20v-30c0-11.05,8.95-20,20-20v50c0,16.57,13.43,30,30,30h20v-10c-11.05,0-20-8.95-20-20Zm-60,0c0,7.6,2.83,14.54,7.49,19.83-9.86-1.23-17.49-9.63-17.49-19.83V30c0-7.6-2.83-14.54-7.49-19.83,9.86,1.23,17.49,9.63,17.49,19.83v100Zm10.17-52.51c1.23-9.86,9.63-17.49,19.83-17.49s18.59,7.63,19.83,17.49c-5.29-4.66-12.22-7.49-19.83-7.49s-14.54,2.83-19.83,7.49Zm29.83,52.51v-47.3c5.97,3.46,10,9.9,10,17.3v30c0,7.6,2.83,14.54,7.49,19.83-9.86-1.23-17.49-9.63-17.49-19.83Z"/>
  <path d="M260,130V30c0-11.05,8.95-20,20-20V0h-20c-16.57,0-30,13.43-30,30v27.64c-5.31-4.75-12.31-7.64-20-7.64-16.57,0-30,13.43-30,30v50c0,16.57,13.43,30,30,30h70v-10c-11.05,0-20-8.95-20-20Zm-2.51-119.83c-4.66,5.29-7.49,12.22-7.49,19.83v100h-10V30c0-10.2,7.63-18.59,17.49-19.83Zm-47.49,69.83c11.05,0,20,8.95,20,20v30c-11.05,0-20-8.95-20-20v-30Zm0-20c10.2,0,18.59,7.63,19.83,17.49-5.29-4.66-12.22-7.49-19.83-7.49s-14.54,2.83-19.83,7.49c1.23-9.86,9.63-17.49,19.83-17.49Zm-20,70v-30c0-7.4,4.03-13.85,10-17.3v47.3c0,7.6,2.83,14.54,7.49,19.83-9.86-1.23-17.49-9.63-17.49-19.83Zm40,20c-10.2,0-18.59-7.63-19.83-17.49,5.29,4.66,12.22,7.49,19.83,7.49h21.71c1.32,3.73,3.35,7.11,5.93,10h-27.64Z"/>
  <path d="M850,130v-50c0-16.57-13.43-30-30-30-10.44,0-19.63,5.33-25,13.42-5.37-8.09-14.56-13.42-25-13.42h-20v10c11.05,0,20,8.95,20,20v50c0,16.57,13.43,30,30,30h20v-10c-11.05,0-20-8.95-20-20v-30c0-11.05,8.95-20,20-20v50c0,16.57,13.43,30,30,30h20v-10c-11.05,0-20-8.95-20-20Zm-60,0c0,7.6,2.83,14.54,7.49,19.83-9.86-1.23-17.49-9.63-17.49-19.83v-50c0-7.6-2.83-14.54-7.49-19.83,9.86,1.23,17.49,9.63,17.49,19.83v50Zm10.17-52.51c1.23-9.86,9.63-17.49,19.83-17.49s18.59,7.63,19.83,17.49c-5.29-4.66-12.22-7.49-19.83-7.49s-14.54,2.83-19.83,7.49Zm29.83,52.51v-47.3c5.97,3.46,10,9.9,10,17.3v30c0,7.6,2.83,14.54,7.49,19.83-9.86-1.23-17.49-9.63-17.49-19.83Z"/>
  <path d="M970,10V0h-20c-16.57,0-30,13.43-30,30v27.64c-5.31-4.75-12.31-7.64-20-7.64-16.57,0-30,13.43-30,30v50c0,16.57,13.43,30,30,30h70v-10c-11.05,0-20-8.95-20-20V30c0-11.05,8.95-20,20-20Zm-50,120c-11.05,0-20-8.95-20-20v-30c11.05,0,20,8.95,20,20v30Zm-20-70c10.2,0,18.59,7.63,19.83,17.49-5.29-4.66-12.22-7.49-19.83-7.49s-14.54,2.83-19.83,7.49c1.23-9.86,9.63-17.49,19.83-17.49Zm-20,70v-30c0-7.4,4.03-13.85,10-17.3v47.3c0,7.6,2.83,14.54,7.49,19.83-9.86-1.23-17.49-9.63-17.49-19.83Zm20.17,2.51c5.29,4.66,12.22,7.49,19.83,7.49h21.71c1.32,3.73,3.35,7.11,5.93,10h-27.64c-10.2,0-18.59-7.63-19.83-17.49Zm39.83-2.51h-10V30c0-10.2,7.63-18.59,17.49-19.83-4.66,5.29-7.49,12.22-7.49,19.83v100Z"/>
  <path d="M750,130v-50c0-16.57-13.43-30-30-30h-20c-16.57,0-30,13.43-30,30v50c0,16.57,13.43,30,30,30h70v-10c-11.05,0-20-8.95-20-20Zm-10-50v50h-10v-50c0-7.6-2.83-14.54-7.49-19.83,9.86,1.23,17.49,9.63,17.49,19.83Zm-40,0c11.05,0,20,8.95,20,20v30c-11.05,0-20-8.95-20-20v-30Zm0-20c10.2,0,18.59,7.63,19.83,17.49-5.29-4.66-12.22-7.49-19.83-7.49s-14.54,2.83-19.83,7.49c1.23-9.86,9.63-17.49,19.83-17.49Zm-20,70v-30c0-7.4,4.03-13.85,10-17.3v47.3c0,7.6,2.83,14.54,7.49,19.83-9.86-1.23-17.49-9.63-17.49-19.83Zm40,20c-10.2,0-18.59-7.63-19.83-17.49,5.29,4.66,12.22,7.49,19.83,7.49h21.71c1.32,3.73,3.35,7.11,5.93,10h-27.64Z"/>
</svg>