<?xml version="1.0" encoding="utf-8"?>
<!-- Generator: Adobe Illustrator 26.4.1, SVG Export Plug-In . SVG Version: 6.00 Build 0)  -->
<svg version="1.1" id="Logo" xmlns="http://www.w3.org/2000/svg" xmlns:xlink="http://www.w3.org/1999/xlink" x="0px" y="0px"
	 viewBox="0 0 280 40" style="enable-background:new 0 0 280 40;" xml:space="preserve">
<style type="text/css">
	.st0{fill:#C1272D;}
</style>
<path class="st0" d="M64.3,14c-0.8,0-1.5,0-2.3,0.1c-3.8,0.1-7.6,0.1-11.4,0.2c-0.9,3.1-1.9,6.2-2.8,9.3c-0.9,3.1-1.9,6.2-2.8,9.2
	c4,0.2,8,0.4,12.1,0.5c0.8,0,1.6,0,2.4,0.1c5.4,0.2,10.4-3.3,11.3-7.7c0.1-0.7,0.3-1.3,0.4-2c0.1-0.7,0.3-1.3,0.4-2
	C72.6,17.2,69.3,13.8,64.3,14L64.3,14z"/>
<path class="st0" d="M33,21.2c1.4-3.9-1.5-7.1-6.5-7.2c-0.8,0-1.5-0.1-2.3-0.1c-1.2,2.8-2.4,5.6-3.6,8.4c-1.2,2.8-2.4,5.6-3.6,8.3
	c4,0.4,8,0.8,12.1,1.1c0.9-2.3,1.8-4.7,2.6-7c-1.5,3.8,1.7,7.3,7,7.7c0.8,0,1.6,0.1,2.4,0.2c1-3,2-6.1,2.9-9.1c1-3,2-6.1,2.9-9.1
	c-3.8,0-7.6,0-11.4-0.1C34.7,16.5,33.8,18.9,33,21.2L33,21.2z"/>
<path class="st0" d="M127.9,10.5c-5,0.4-9.3,4.7-9.7,9.6c-0.1,0.7-0.1,1.5-0.1,2.2c0,0.7-0.1,1.5-0.1,2.2c-0.3,4.9,3.7,8.8,9.1,8.7
	c0.8,0,1.6,0,2.4,0c4-0.1,8-0.2,12.1-0.3c0-0.8,0-1.6,0-2.3c0-5.2-4.2-9.2-9.4-8.9c5.2-0.2,9.4-4.6,9.4-9.8c0-0.8,0-1.6,0-2.3
	c-3.8,0.3-7.6,0.6-11.4,0.8C129.4,10.4,128.6,10.4,127.9,10.5L127.9,10.5z"/>
<path class="st0" d="M105.9,12c-0.8,0.1-1.5,0.1-2.3,0.1c-3.8,0.2-7.6,0.5-11.4,0.7c-0.1,0.7-0.2,1.4-0.3,2.1
	c-0.7,4.6,2.9,8.2,8.2,8.1c-3.1,0.1-6.2,0.2-9.4,0.3c-0.1,0.7-0.2,1.4-0.3,2.1c-0.7,4.6,3.1,8.3,8.4,8.3c0.8,0,1.6,0,2.4,0
	c4,0,8.1-0.1,12.1-0.2c0.1-0.7,0.1-1.5,0.2-2.2c0.3-4.9-3.6-8.7-8.7-8.5c3.1-0.1,6.2-0.2,9.4-0.4c0.1-0.7,0.1-1.5,0.2-2.2
	C114.7,15.3,110.9,11.7,105.9,12z"/>
<path class="st0" d="M75.6,21.6c-0.1,0.7-0.3,1.3-0.4,2c-0.7,3.3-1.3,6.7-2,10c0.8,0,1.6,0,2.4,0c5.4,0.1,10.3-3.6,11-8.2
	c0.1-0.7,0.2-1.4,0.3-2.1c0.6-3.5,1.1-6.9,1.6-10.4c-0.8,0-1.5,0.1-2.3,0.1C81.3,13.4,76.5,17.1,75.6,21.6z"/>
<path class="st0" d="M5.8,19.4c-0.3,0.5-0.6,1-0.8,1.6c-1.4,2.6-2.7,5.2-4.1,7.8c0.8,0.1,1.6,0.2,2.4,0.3c5.4,0.7,11-1.7,12.6-5.4
	c0.2-0.5,0.5-1.1,0.8-1.6c1.2-2.7,2.5-5.5,3.7-8.2c-0.8,0-1.5-0.1-2.3-0.1C13.2,13.4,7.6,16,5.8,19.4L5.8,19.4z"/>
<path class="st0" d="M186.7,19.4c-0.8,0-1.6,0-2.3,0.1c-0.4-4.3-0.9-8.5-1.3-12.8c-3.8,0.2-7.6,0.5-11.4,0.7
	c0.3,4.2,0.6,8.3,0.9,12.5c0.1,0.8,0.1,1.7,0.2,2.5c0.4,5.5,5.1,9.9,10.4,9.9c0.8,0,1.6,0,2.4,0c4,0,8.1,0,12.1,0
	c-0.1-0.9-0.2-1.8-0.3-2.6C196.6,23.8,191.9,19.2,186.7,19.4L186.7,19.4z"/>
<path class="st0" d="M264.8,5.7c-0.8,0-1.5-0.1-2.3-0.1c-3.8-0.2-7.6-0.3-11.4-0.4c1.1,4.9,2.3,9.9,3.4,14.8c1.1,5,2.3,9.9,3.4,14.9
	c4,0.4,8,0.8,12.1,1.2c0.8,0.1,1.6,0.2,2.4,0.3c5.4,0.7,8.2-4.3,6.4-11.3c-0.3-1-0.5-2.1-0.8-3.1c-0.3-1-0.5-2.1-0.8-3.1
	C275.3,11.9,269.8,6,264.8,5.7L264.8,5.7z"/>
<path class="st0" d="M238.4,16.4C237.1,10.1,232,4.9,227,5c-0.8,0-1.5,0-2.3,0c0.9,4.7,1.7,9.3,2.6,14s1.7,9.3,2.6,14
	c4,0.2,8.1,0.4,12.1,0.6c-0.8-3.8-1.6-7.6-2.3-11.5c1.3,6.3,6.6,11.7,12,12.2c0.8,0.1,1.6,0.1,2.4,0.2c-1.1-4.9-2.2-9.8-3.3-14.7
	s-2.2-9.8-3.3-14.7C243.6,5,239.8,5,236,5C236.8,8.8,237.6,12.6,238.4,16.4L238.4,16.4z"/>
<path class="st0" d="M211.9,5.4c-0.8,0-1.5,0.1-2.3,0.1c-0.8,0-1.5,0.1-2.3,0.1c-5,0.2-8.4,5.1-7.7,10.9c0.1,0.9,0.2,1.8,0.4,2.6
	c0.6,4.4,1.2,8.8,1.8,13.2c0.8,0,1.6,0,2.4,0c5.4,0.1,8.9-4.7,8-10.6c0.9,5.9,6,10.9,11.3,11.1c0.8,0,1.6,0.1,2.4,0.1
	c-0.8-4.6-1.6-9.2-2.5-13.9c-0.2-0.9-0.3-1.9-0.5-2.8C221.8,10.1,216.8,5.2,211.9,5.4L211.9,5.4z"/>
<path class="st0" d="M157,18.1c-0.2-5.4-4.5-9.4-9.5-9c-0.8,0.1-1.5,0.1-2.3,0.2c0,3.9,0.1,7.9,0.1,11.8c0,3.9,0.1,7.9,0.1,11.8
	c0.8,0,1.6,0,2.4,0c5.4-0.1,9.5-4.5,9.3-9.9c0.2,5.3,4.7,9.6,10,9.5c0.8,0,1.6,0,2.4,0c-0.3-4.1-0.5-8.3-0.8-12.4
	c-0.3-4.1-0.6-8.3-0.8-12.4c-0.8,0.1-1.5,0.1-2.3,0.2C160.7,8.1,156.8,12.7,157,18.1L157,18.1z"/>
</svg>
