<?xml version="1.0" encoding="utf-8"?>
<!-- Generator: Adobe Illustrator 26.4.1, SVG Export Plug-In . SVG Version: 6.00 Build 0)  -->
<svg version="1.1" id="Layer_1" xmlns="http://www.w3.org/2000/svg" xmlns:xlink="http://www.w3.org/1999/xlink" x="0px" y="0px"
	 viewBox="0 0 80 80" style="enable-background:new 0 0 80 80;" xml:space="preserve">
<style type="text/css">
	.st0{fill:none;stroke:#000000;stroke-width:3.3333;stroke-linecap:round;stroke-linejoin:round;stroke-miterlimit:6.6667;}
</style>
<line class="st0" x1="47.5" y1="35.7" x2="32.5" y2="27"/>
<path class="st0" d="M55,46.7V33.3c0-1.2-0.6-2.3-1.7-2.9l-11.7-6.7c-1-0.6-2.3-0.6-3.3,0l-11.7,6.7c-1,0.6-1.7,1.7-1.7,2.9v13.3
	c0,1.2,0.6,2.3,1.7,2.9l11.7,6.7c1,0.6,2.3,0.6,3.3,0l11.7-6.7C54.4,49,55,47.9,55,46.7z"/>
<polyline class="st0" points="25.5,31.6 40,40 54.5,31.6 "/>
<line class="st0" x1="40" y1="56.8" x2="40" y2="40"/>
</svg>
