<?xml version="1.0" encoding="UTF-8"?>
<svg id="Layer_1" data-name="Layer 1" xmlns="http://www.w3.org/2000/svg" viewBox="0 0 128 128">
  <defs>
    <style>
      .cls-1 {
        fill: #fff;
      }

      .cls-2 {
        fill: #c1272d;
      }
    </style>
  </defs>
  <rect width="128" height="128"/>
  <path class="cls-2" d="M79,89V39c0-16.57-13.43-30-30-30H29v10c11.05,0,20,8.95,20,20v50c0,16.57,13.43,30,30,30h20v-10c-11.05,0-20-8.95-20-20Zm-20,0V39c0-7.6-2.83-14.54-7.49-19.83,9.86,1.24,17.49,9.63,17.49,19.83v50c0,7.6,2.83,14.54,7.49,19.83-9.86-1.24-17.49-9.63-17.49-19.83Z"/>
  <path class="cls-1" d="M76.49,108.83c-9.86-1.24-17.49-9.63-17.49-19.83V39c0-7.6-2.83-14.54-7.49-19.83,9.86,1.24,17.49,9.63,17.49,19.83v50c0,7.6,2.83,14.54,7.49,19.83Z"/>
</svg>